<?xml version="1.0" ?>
<!DOCTYPE svg  PUBLIC '-//W3C//DTD SVG 1.1//EN'  'http://www.w3.org/Graphics/SVG/1.1/DTD/svg11.dtd'>
<svg height="100%" style="fill-rule:evenodd;clip-rule:evenodd;stroke-linejoin:round;stroke-miterlimit:2;" version="1.1" viewBox="0 0 32 32" width="100%" xml:space="preserve" xmlns="http://www.w3.org/2000/svg" xmlns:serif="http://www.serif.com/" xmlns:xlink="http://www.w3.org/1999/xlink">
<path d="M12.966,5.962c0,-0 -2.584,0.004 -4.979,0.008c-2.758,0.005 -4.991,2.243 -4.991,5l0,13.03c0,1.326 0.527,2.598 1.464,3.536c0.938,0.937 2.21,1.464 3.536,1.464l13.003,0c2.762,-0 5,-2.239 5,-5c0,-2.405 0,-5.004 0,-5.004c0,-0.552 -0.448,-1 -1,-1c-0.551,-0 -1,0.448 -1,1l0,5.004c0,1.657 -1.343,3 -3,3l-13.003,0c-0.796,-0 -1.559,-0.316 -2.121,-0.879c-0.563,-0.562 -0.879,-1.325 -0.879,-2.121l0,-13.03c0,-1.654 1.34,-2.997 2.995,-3c2.394,-0.004 4.979,-0.008 4.979,-0.008c0.552,-0.001 0.999,-0.45 0.998,-1.002c-0.001,-0.552 -0.45,-0.999 -1.002,-0.998Z" fill="#ffffff"/>
<path d="M22.572,3.886l-9.371,9.371c-0.137,0.137 -0.232,0.311 -0.271,0.501l-1.081,5.152c-0.069,0.329 0.032,0.671 0.268,0.909c0.237,0.239 0.577,0.343 0.907,0.277l5.194,-1.038c0.193,-0.039 0.371,-0.134 0.511,-0.274c-0,0 6.081,-6.081 9.371,-9.37c1.526,-1.527 1.526,-4.001 -0,-5.527c-0.001,-0 -0.001,-0.001 -0.001,-0.001c-1.527,-1.526 -4.001,-1.526 -5.527,-0Zm-1.111,3.939l2.699,2.7l-6.631,6.631c-0,-0 -3.412,0.682 -3.412,0.682c0,0 0.709,-3.378 0.709,-3.378l6.635,-6.635Zm4.113,1.285l-2.699,-2.699l1.111,-1.111c0.745,-0.745 1.953,-0.745 2.698,0c0.001,0 0.001,0.001 0.001,0.001c0.745,0.745 0.745,1.953 0,2.698l-1.111,1.111Z" fill="#ffffff"/>
</svg>